<?xml version="1.0" standalone="no"?>
<!DOCTYPE svg PUBLIC "-//W3C//DTD SVG 20010904//EN"
 "http://www.w3.org/TR/2001/REC-SVG-20010904/DTD/svg10.dtd">
<svg version="1.0" xmlns="http://www.w3.org/2000/svg"
 width="720.000000pt" height="720.000000pt" viewBox="0 0 720.000000 720.000000"
 preserveAspectRatio="xMidYMid meet">

<g transform="translate(0.000000,720.000000) scale(0.100000,-0.100000)"
fill="#000000" stroke="none">
<path d="M0 3600 l0 -3600 3600 0 3600 0 0 3600 0 3600 -3600 0 -3600 0 0
-3600z m3337 1204 c15 -3 114 -35 219 -70 170 -57 200 -64 270 -64 l78 0 478
-190 c262 -104 482 -190 487 -190 5 0 31 -30 57 -68 l48 -67 225 -105 c174
-81 236 -115 270 -147 l44 -42 -6 -93 c-3 -51 -13 -191 -22 -311 -9 -120 -14
-222 -10 -225 4 -4 70 -9 148 -12 l142 -5 -175 -72 c-215 -89 -558 -228 -830
-338 -113 -46 -295 -120 -405 -164 -110 -45 -296 -120 -413 -167 l-213 -86
-1031 2 c-686 0 -1037 4 -1050 11 -16 9 -17 13 -6 26 13 16 149 84 320 158 48
21 85 42 83 46 -3 3 -24 9 -47 13 -64 10 -207 55 -260 82 -99 50 -153 122
-177 232 -11 53 -15 142 -6 142 2 0 33 -20 68 -45 36 -25 95 -59 131 -76 75
-35 71 -31 80 -81 5 -27 3 -38 -5 -38 -25 0 -155 70 -197 105 -46 40 -48 39
-29 -8 34 -80 170 -159 349 -202 239 -57 431 -75 804 -75 304 0 443 11 674 53
l174 32 16 70 c19 83 41 128 84 173 52 56 126 86 87 35 -50 -63 -72 -243 -42
-344 37 -129 158 -177 241 -96 42 41 60 85 69 167 l6 65 65 18 c196 53 379
103 485 132 l119 32 12 46 c14 56 46 102 84 122 42 22 57 19 32 -7 -44 -48
-56 -150 -25 -215 30 -65 107 -80 154 -30 29 31 39 60 39 117 l0 49 58 17 c31
8 128 37 215 62 l158 46 -3 311 c-3 337 -4 342 -61 380 -19 12 -229 96 -392
155 -27 10 -115 44 -195 75 -80 31 -167 65 -195 75 -27 10 -102 38 -165 63
-363 140 -694 262 -934 343 -123 42 -161 52 -167 42 -13 -20 -39 -143 -51
-236 -9 -70 -9 -85 3 -93 8 -4 64 -20 124 -34 61 -14 140 -33 178 -41 70 -17
78 -25 50 -56 -22 -25 -110 -24 -233 3 -52 11 -107 22 -121 25 -31 7 -29 15
-74 -301 -45 -317 -82 -437 -153 -495 -75 -62 -178 -79 -517 -87 -350 -8 -682
19 -836 66 -32 11 -61 16 -64 12 -2 -4 -7 -49 -11 -100 l-7 -92 71 -67 c67
-63 124 -152 103 -160 -21 -7 -200 89 -231 125 l-33 37 6 136 c11 236 56 537
113 743 53 192 52 177 13 177 -56 0 -63 -11 -70 -102 -8 -97 -21 -150 -49
-195 -18 -29 -25 -33 -65 -33 -40 0 -47 3 -56 28 -6 15 -9 74 -7 137 4 126 17
157 82 203 35 24 50 27 137 30 l97 4 13 31 c29 73 107 194 163 255 108 116
240 162 586 203 191 22 746 31 827 13z m553 -505 c-30 -116 -84 -281 -130
-394 l-39 -96 22 -8 c13 -5 102 -25 197 -45 96 -19 272 -56 390 -81 118 -25
278 -59 355 -75 243 -50 315 -75 130 -45 -130 21 -1108 155 -1132 155 -6 0
-34 -42 -62 -92 -125 -233 -322 -462 -486 -567 -91 -59 -238 -110 -382 -135
-207 -36 -507 -39 -736 -6 -145 21 -119 26 135 25 139 0 273 4 298 8 44 7 47
10 90 84 l45 77 228 75 c198 64 230 72 243 60 10 -11 12 -23 5 -47 -13 -44 -1
-42 84 14 129 84 275 252 404 464 71 117 244 468 312 631 24 59 45 101 47 94
2 -7 -7 -50 -18 -96z m1838 -1235 c12 -8 29 -28 37 -44 34 -66 7 -127 -73
-161 -27 -12 -42 -24 -39 -32 3 -6 12 -28 21 -48 l15 -36 -49 -20 -49 -21 -60
142 c-34 77 -61 146 -61 151 0 16 160 83 200 84 20 1 46 -6 58 -15z m-269
-246 c34 -79 61 -146 61 -149 0 -7 -74 -39 -89 -39 -9 0 -135 289 -129 295 6
6 73 33 84 34 6 1 39 -63 73 -141z m-2504 41 c-31 -88 -41 -97 -119 -105 -107
-10 -366 -8 -379 5 -20 20 19 59 65 65 176 21 282 39 338 55 36 11 75 20 87
20 22 1 22 0 8 -40z m2306 -18 c16 -16 30 -38 30 -48 2 -33 -3 -58 -14 -72
-12 -14 4 -32 77 -89 16 -12 27 -24 25 -25 -2 -2 -26 -13 -54 -24 l-50 -21
-51 43 c-33 29 -55 41 -64 35 -14 -9 -11 -24 14 -81 l15 -37 -49 -20 -48 -20
-61 141 c-34 78 -61 147 -61 152 0 16 190 94 228 95 24 0 42 -8 63 -29z m-333
-106 c19 -40 15 -49 -33 -70 l-44 -20 44 -103 c25 -57 45 -107 45 -112 0 -8
-89 -45 -94 -39 -2 2 -23 49 -46 104 -24 55 -45 102 -46 104 -2 2 -24 -4 -50
-14 -48 -18 -53 -16 -72 28 -12 27 -11 29 30 47 24 10 84 36 133 58 50 22 97
41 106 41 9 1 21 -10 27 -24z m-481 -281 l-19 -115 25 -59 26 -58 -50 -20 -49
-21 -20 46 c-11 25 -20 49 -20 54 0 5 -42 36 -92 70 -51 34 -97 65 -102 70 -6
5 13 19 44 32 l54 24 47 -33 c25 -19 49 -34 53 -34 3 0 6 13 6 29 0 70 10 89
59 109 25 11 49 21 52 21 3 1 -3 -51 -14 -115z m-268 -180 c34 -80 61 -147 59
-149 -12 -10 -70 -35 -81 -35 -13 0 -77 134 -77 161 0 7 -2 10 -5 8 -2 -3 2
-47 10 -99 8 -52 13 -95 12 -96 -6 -5 -67 -34 -71 -34 -2 0 -32 34 -65 76 -34
42 -61 75 -61 72 0 -2 13 -32 30 -66 48 -100 48 -106 -1 -125 -23 -9 -43 -16
-45 -14 -3 4 -124 289 -124 293 0 6 111 54 126 54 7 0 38 -32 68 -71 31 -39
56 -67 56 -63 0 5 -6 46 -14 92 -10 60 -10 84 -2 90 14 9 109 51 117 52 3 0
34 -66 68 -146z m-2079 61 c34 -17 60 -62 60 -100 0 -32 -24 -81 -47 -93 -14
-9 -14 -11 5 -21 27 -15 52 -62 52 -98 -1 -37 -20 -70 -56 -94 -26 -17 -48
-19 -196 -19 l-168 0 0 220 0 220 160 0 c124 0 168 -3 190 -15z m471 -12 c77
-40 104 -90 104 -198 0 -67 -4 -87 -25 -125 -34 -60 -91 -91 -180 -98 -162
-11 -250 68 -250 225 1 148 76 222 231 223 52 0 76 -6 120 -27z m520 -4 c67
-37 94 -93 94 -194 0 -101 -27 -157 -94 -194 -90 -49 -244 -36 -304 27 -79 83
-77 264 5 339 63 58 213 69 299 22z m301 -70 l3 -91 74 91 73 91 85 0 c98 0
98 10 1 -101 -32 -37 -58 -72 -58 -78 0 -7 33 -66 74 -131 l75 -120 -83 0 -82
0 -43 75 c-23 41 -44 75 -46 75 -3 0 -20 -14 -40 -31 -30 -27 -35 -37 -35 -75
l0 -44 -70 0 -70 0 0 215 0 215 70 0 69 0 3 -91z"/>
<path d="M2815 4704 c-316 -17 -547 -43 -653 -75 -92 -28 -142 -59 -200 -125
-47 -53 -112 -159 -112 -183 0 -6 14 -18 31 -26 26 -14 86 -16 492 -13 l462 3
115 38 c63 21 143 41 177 44 l62 6 6 56 c12 103 34 192 56 227 12 19 18 38 14
42 -7 7 -341 11 -450 6z"/>
<path d="M2943 4279 c-43 -21 -103 -96 -103 -129 0 -30 -25 -49 -75 -57 -77
-12 -776 -6 -826 7 -28 8 -57 27 -90 62 l-49 51 -10 -28 c-41 -109 -108 -442
-126 -631 l-6 -72 28 -6 c131 -26 722 -49 925 -36 248 16 325 33 382 88 43 40
62 84 96 222 30 123 83 458 74 473 -7 12 -80 8 -90 -5 -6 -7 -13 -48 -17 -90
-8 -93 -29 -166 -57 -202 -16 -20 -29 -26 -59 -26 -58 0 -64 15 -64 144 0 94
3 117 21 151 25 48 47 69 93 89 24 11 29 15 15 16 -11 0 -39 -9 -62 -21z"/>
<path d="M2362 2580 c2 -8 24 -25 49 -38 38 -21 54 -23 124 -19 76 4 155 29
155 49 0 4 -33 8 -73 8 -41 0 -116 3 -167 7 -76 5 -92 4 -88 -7z"/>
<path d="M5613 2980 c-20 -8 -22 -12 -11 -35 18 -41 73 -28 66 16 -3 26 -22
33 -55 19z"/>
<path d="M5118 2764 c-24 -13 -26 -17 -17 -38 10 -21 15 -23 40 -14 35 12 53
33 45 53 -7 19 -33 19 -68 -1z"/>
<path d="M1890 2210 l0 -41 56 3 c64 3 88 23 68 56 -8 12 -27 18 -68 20 l-56
3 0 -41z"/>
<path d="M1890 2045 l0 -35 59 0 c64 0 87 15 76 50 -6 17 -15 20 -71 20 l-64
0 0 -35z"/>
<path d="M2389 2221 c-26 -27 -29 -36 -29 -96 0 -60 3 -69 29 -96 66 -65 151
-11 151 96 0 107 -85 161 -151 96z"/>
<path d="M2899 2221 c-26 -27 -29 -36 -29 -96 0 -60 3 -69 29 -96 48 -48 111
-36 137 26 53 128 -50 252 -137 166z"/>
</g>
</svg>
